Contact *1997* [BluRay][1080p][ENG, POL]

General information:
Country: USA
Release Date: 11 July 1997
Genre: Drama, Mystery, Sci-Fi, Thriller
Director: Robert Zemeckis
Screenplay: James V. Hart, Michael Goldenberg, Carl Sagan (novel), Carl Sagan (story) and Ann Druyan (story)
Original Music by Alan Silvestri
Cinematography by Don Burgess
Duration: 2h 29mn
Language: English, Polish
Subtitles: English, Polish
Rating: 7.8/10 - 6267 votes

Cast:
Jena Malone ...  Young Ellie 
David Morse ...  Ted Arroway 
Jodie Foster ...  Eleanor Arroway 
Geoffrey Blake ...  Fisher 
William Fichtner ...  Kent 
Sami Chester ...  Vernon (as SaMi Chester) 
Timothy McNeil ...  Davio 
Laura Elena Surillo ...  Cantina Woman 
Matthew McConaughey ...  Palmer Joss 
Tom Skerritt ...  David Drumlin 
Henry Strozier ...  Minister 
Michael Chaban ...  Hadden Suit 
Max Martini ...  Willie (as Maximilian Martini) 
Larry King ...  Himself 
Thomas Garner ...  Ian Broderick 

Plot:
Dr. Ellie Arroway, after years of searching, finds conclusive radio proof of intelligent aliens, who send plans for a mysterious machine.

Specifications:
General
Format                           : Matroska
Overall bit rate                 : 10.0 Mbps
Encoded date                     : UTC 2010-12-06 13:14:08
Writing library                  : libebml v1.0.0 + libmatroska v1.0.0

Video
Format                           : AVC
Format/Info                      : Advanced Video Codec
Format profile                   : High@L4.1
Format settings, CABAC           : Yes
Format settings, ReFrames        : 5 frames
Muxing mode                      : Container profile=Unknown@4.1
Codec ID                         : V_MPEG4/ISO/AVC
Bit rate                         : 8 153 Kbps
Width                            : 1 920 pixels
Height                           : 800 pixels
Display aspect ratio             : 2.40:1
Frame rate                       : 23.976 fps

Audio 1
Format                           : DTS
Format/Info                      : Digital Theater Systems
Codec ID                         : A_DTS
Bit rate mode                    : Constant
Bit rate                         : 1 510 Kbps
Channel(s)                       : 6 channels
Channel positions                : Front: L C R, Side: L R, LFE
Sampling rate                    : 48.0 KHz
Bit depth                        : 24 bits
Stream size                      : 1.58 GiB (15%)
Title                            : English

Audio 2
Format                           : AC-3
Format/Info                      : Audio Coding 3
Mode extension                   : CM (complete main)
Codec ID                         : A_AC3
Bit rate mode                    : Constant
Bit rate                         : 384 Kbps
Channel(s)                       : 2 channels
Channel positions                : Front: L R
Sampling rate                    : 48.0 KHz
Stream size                      : 412 MiB (4%)
Title                            : Polish
Language                         : Polish

Text 1
Format                           : UTF-8
Codec ID                         : S_TEXT/UTF8
Codec ID/Info                    : UTF-8 Plain Text
Title                            : English

Text 2
Format                           : UTF-8
Codec ID                         : S_TEXT/UTF8
Codec ID/Info                    : UTF-8 Plain Text
Title                            : Polish
Language                         : Polish
